<svg xmlns="http://www.w3.org/2000/svg" viewBox="1235 520 88.15 258" height="2050" width="6000" version="1.1"
  fill="#090F15">
  <g transform="matrix(1.3333333,0,0,-1.3333333,0,1440)">
    <g clip-path="url(#clipPath32)">

      <!-- Logo chính -->
      <g transform="translate(1000.3936,541.2139)">
        <path
          d="m 0,0 c 6.691,0 41.24,0.038 41.24,0.038 l 73.789,-0.098 c 0,0 25.796,0.164 39.376,1.51 18.215,1.805 27.942,5.831 35.393,23.63 4.151,9.919 5.536,30.218 3.385,41.517 -2.552,13.405 -9.514,32.8 -40.435,34.155 -36.078,1.581 -57.828,0.439 -93.936,-0.319 C 52.599,100.302 40.169,92.671 35.139,89.849 25.059,84.195 -16.57,52.684 -17.358,52.15 -32.472,41.906 -42.919,30.516 -54.72,14.781 -71.208,-7.203 -89.236,-32.808 -89.236,-32.808 c 0,0 -5.113,-6.669 -7.939,-10.303 -0.773,-0.994 -2.301,-1.98 -3.489,-1.988 -18.177,-0.125 -34.757,-0.087 -53.957,-0.087 16.509,23.191 45.623,61.846 60.197,82.832 3.073,4.426 7.253,10.326 3.688,13.276 -11.779,9.749 -42.346,34.563 -54.041,43.622 -8.327,6.451 -25.209,5.795 -25.209,5.795 0,0 -1.639,0.123 -13.22,0.02 -3.96,-0.034 -5.859,0.232 -5.965,-3.797 -1.166,-44.339 -2.345,-92.864 -3.53,-137.201 -0.038,-1.427 -0.244,-2.85 -0.395,-4.527 h -50.784 c -0.09,1.076 -0.269,2.208 -0.267,3.34 0.073,43.031 0.087,90.249 0.343,133.279 0.043,7.235 -0.166,9.86 -10.353,10.003 -22.625,0.316 -40.494,0.14 -63.09,0.153 -4.112,0.003 -6.933,3.141 -6.889,7.253 0.124,11.86 0.061,38.825 0.061,38.825 l 54.082,-0.002 77.143,-0.06 c 0,0 16.103,0.205 28.929,0 13.284,-0.212 22.946,0.738 39.172,-11.555 6.502,-4.926 48.549,-39.894 57.488,-46.301 12.578,-9.016 18.971,-5.778 28.805,1.679 13.27,10.064 41.592,29.215 58.843,42.573 15.85,12.274 28.282,13.976 36.633,13.932 39.709,-0.211 62.766,0.328 102.389,0.224 7.545,-0.02 30.036,-1.739 48.209,-15.577 16.181,-12.321 28.963,-28.482 32.769,-49.46 3.78,-20.832 2.07,-53.914 -4.832,-73.775 -3.248,-9.345 -17.427,-53.916 -66.803,-54.367 -21.25,-0.194 -136.628,-0.385 -160.873,-0.123 -3.398,0.037 -7.793,2.711 -7.822,5.903 C -0.073,-24.773 0,-15.121 0,0" />
      </g>

      <!-- Phần chi tiết phụ -->
      <g transform="translate(946.2754,495.6313)">
        <path d="m 0,0 h 31.737 c 3.161,0 5.179,2.829 5.882,5.912 0.002,0.007 0.005,39.152 0.005,39.152 z" />
      </g>

    </g>
  </g>
</svg>