<?xml version="1.0" encoding="UTF-8" standalone="no"?>
<svg
   xmlns:dc="http://purl.org/dc/elements/1.1/"
   xmlns:cc="http://creativecommons.org/ns#"
   xmlns:rdf="http://www.w3.org/1999/02/22-rdf-syntax-ns#"
   xmlns:svg="http://www.w3.org/2000/svg"
   xmlns="http://www.w3.org/2000/svg"
   viewBox="0 0 2560 1440"
   height="1440"
   width="2560"
   xml:space="preserve"
   id="svg2"
   version="1.1"><metadata
     id="metadata8"><rdf:RDF><cc:Work
         rdf:about=""><dc:format>image/svg+xml</dc:format><dc:type
           rdf:resource="http://purl.org/dc/dcmitype/StillImage" /></cc:Work></rdf:RDF></metadata><defs
     id="defs6"><clipPath
       id="clipPath32"
       clipPathUnits="userSpaceOnUse"><path
         id="path30"
         d="M 0,1080 H 1920 V 0 H 0 Z" /></clipPath></defs><g
     transform="matrix(1.3333333,0,0,-1.3333333,0,1440)"
     id="g10"><path
       id="path12"
       style="fill:#090f15;fill-opacity:1;fill-rule:nonzero;stroke:none"
       d="M 0.387,0.419 H 1920 V 1080 H 0.387 Z" /><path
       id="path14"
       style="fill:#090f15;fill-opacity:1;fill-rule:nonzero;stroke:none"
       d="M 0.387,0.419 H 1920 V 1080 H 0.387 Z" /><path
       id="path16"
       style="fill:#090f15;fill-opacity:1;fill-rule:nonzero;stroke:#ffffff;stroke-width:1;stroke-linecap:butt;stroke-linejoin:miter;stroke-miterlimit:10;stroke-dasharray:none;stroke-opacity:1"
       d="m 1611.548,41.666 h -53.226 v 51.613 h 53.226 z" /><path
       id="path18"
       style="fill:#006339;fill-opacity:1;fill-rule:nonzero;stroke:none"
       d="m 1747.487,41.666 h -53.226 v 51.613 h 53.226 z" /><path
       id="path20"
       style="fill:#002f36;fill-opacity:1;fill-rule:nonzero;stroke:none"
       d="m 1679.518,41.666 h -53.226 v 51.613 h 53.226 z" /><path
       id="path22"
       style="fill:#55b621;fill-opacity:1;fill-rule:nonzero;stroke:none"
       d="m 1815.458,41.666 h -53.227 v 51.613 h 53.227 z" /><path
       id="path24"
       style="fill:#ffffd9;fill-opacity:1;fill-rule:nonzero;stroke:none"
       d="m 1883.428,41.666 h -53.226 v 51.613 h 53.226 z" /><g
       id="g26"><g
         clip-path="url(#clipPath32)"
         id="g28"><g
           transform="translate(1000.3936,541.2139)"
           id="g34"><path
             id="path36"
             style="fill:#ffffd7;fill-opacity:1;fill-rule:nonzero;stroke:none"
             d="m 0,0 c 6.691,0 41.24,0.038 41.24,0.038 l 73.789,-0.098 c 0,0 25.796,0.164 39.376,1.51 18.215,1.805 27.942,5.831 35.393,23.63 4.151,9.919 5.536,30.218 3.385,41.517 -2.552,13.405 -9.514,32.8 -40.435,34.155 -36.078,1.581 -57.828,0.439 -93.936,-0.319 C 52.599,100.302 40.169,92.671 35.139,89.849 25.059,84.195 -16.57,52.684 -17.358,52.15 -32.472,41.906 -42.919,30.516 -54.72,14.781 -71.208,-7.203 -89.236,-32.808 -89.236,-32.808 c 0,0 -5.113,-6.669 -7.939,-10.303 -0.773,-0.994 -2.301,-1.98 -3.489,-1.988 -18.177,-0.125 -34.757,-0.087 -53.957,-0.087 16.509,23.191 45.623,61.846 60.197,82.832 3.073,4.426 7.253,10.326 3.688,13.276 -11.779,9.749 -42.346,34.563 -54.041,43.622 -8.327,6.451 -25.209,5.795 -25.209,5.795 0,0 -1.639,0.123 -13.22,0.02 -3.96,-0.034 -5.859,0.232 -5.965,-3.797 -1.166,-44.339 -2.345,-92.864 -3.53,-137.201 -0.038,-1.427 -0.244,-2.85 -0.395,-4.527 h -50.784 c -0.09,1.076 -0.269,2.208 -0.267,3.34 0.073,43.031 0.087,90.249 0.343,133.279 0.043,7.235 -0.166,9.86 -10.353,10.003 -22.625,0.316 -40.494,0.14 -63.09,0.153 -4.112,0.003 -6.933,3.141 -6.889,7.253 0.124,11.86 0.061,38.825 0.061,38.825 l 54.082,-0.002 77.143,-0.06 c 0,0 16.103,0.205 28.929,0 13.284,-0.212 22.946,0.738 39.172,-11.555 6.502,-4.926 48.549,-39.894 57.488,-46.301 12.578,-9.016 18.971,-5.778 28.805,1.679 13.27,10.064 41.592,29.215 58.843,42.573 15.85,12.274 28.282,13.976 36.633,13.932 39.709,-0.211 62.766,0.328 102.389,0.224 7.545,-0.02 30.036,-1.739 48.209,-15.577 16.181,-12.321 28.963,-28.482 32.769,-49.46 3.78,-20.832 2.07,-53.914 -4.832,-73.775 -3.248,-9.345 -17.427,-53.916 -66.803,-54.367 -21.25,-0.194 -136.628,-0.385 -160.873,-0.123 -3.398,0.037 -7.793,2.711 -7.822,5.903 C -0.073,-24.773 0,-15.121 0,0" /></g><g
           transform="translate(946.2754,495.6313)"
           id="g38"><path
             id="path40"
             style="fill:#ffffd7;fill-opacity:1;fill-rule:nonzero;stroke:none"
             d="m 0,0 h 31.737 c 3.161,0 5.179,2.829 5.882,5.912 0.002,0.007 0.005,39.152 0.005,39.152 z" /></g><g
           transform="translate(697.8379,392.2095)"
           id="g42"><path
             id="path44"
             style="fill:#ffffd7;fill-opacity:1;fill-rule:nonzero;stroke:none"
             d="m 0,0 h -7.533 v 62.443 h -13.502 v 6.822 H 13.549 V 62.443 H 0 Z" /></g><g
           transform="translate(738.8662,418.1724)"
           id="g46"><path
             id="path48"
             style="fill:#ffffd7;fill-opacity:1;fill-rule:nonzero;stroke:none"
             d="m 0,0 -4.832,-0.332 c -3.664,-0.221 -6.389,-1.255 -8.172,-3.103 -1.786,-1.848 -2.677,-4.525 -2.677,-8.031 0,-3.253 0.584,-5.653 1.753,-7.201 1.167,-1.548 2.779,-2.321 4.831,-2.321 2.875,0 5.11,1.389 6.704,4.169 C -0.797,-14.04 0,-10.203 0,-5.307 Z m -6.207,27.004 c 4.801,0 8.228,-1.532 10.282,-4.595 C 6.127,19.345 7.154,14.907 7.154,9.096 V -25.963 H 1.61 l -1.089,7.391 H 0.333 c -0.823,-1.77 -1.802,-3.277 -2.937,-4.524 -1.138,-1.249 -2.434,-2.196 -3.887,-2.843 -1.452,-0.646 -3.126,-0.971 -5.022,-0.971 -2.684,0 -4.88,0.71 -6.585,2.132 -1.705,1.421 -2.968,3.293 -3.79,5.613 -0.822,2.322 -1.232,4.826 -1.232,7.51 0,5.148 1.484,9.144 4.453,11.987 2.969,2.842 7.186,4.389 12.651,4.643 l 5.922,0.379 v 3.552 c 0,4.17 -0.57,7.218 -1.705,9.144 -1.138,1.927 -2.97,2.89 -5.497,2.89 -1.453,0 -2.977,-0.253 -4.573,-0.757 -1.594,-0.506 -3.323,-1.311 -5.187,-2.417 l -2.32,5.496 c 1.957,1.263 4.049,2.203 6.276,2.819 2.227,0.615 4.524,0.923 6.893,0.923" /></g><g
           transform="translate(765.8706,465.9282)"
           id="g50"><path
             id="path52"
             style="fill:#ffffd7;fill-opacity:1;fill-rule:nonzero;stroke:none"
             d="m 0,0 v -36.812 c 0,-1.833 -0.031,-3.617 -0.095,-5.354 -0.063,-1.737 -0.173,-3.49 -0.331,-5.258 h 0.331 c 0.537,1.073 1.074,2.1 1.612,3.079 0.537,0.978 1.105,1.927 1.706,2.843 l 11.89,19.803 h 7.866 L 10.423,-41.692 23.879,-73.719 H 16.062 L 5.497,-47.567 0,-54.436 V -73.719 H -7.296 V 0 Z" /></g><g
           transform="translate(810.7847,439.1123)"
           id="g54"><path
             id="path56"
             style="fill:#ffffd7;fill-opacity:1;fill-rule:nonzero;stroke:none"
             d="m 0,0 c -2.748,0 -4.896,-1.334 -6.444,-4.003 -1.546,-2.669 -2.447,-6.783 -2.7,-12.342 H 8.718 c 0,2.937 -0.308,5.646 -0.924,8.125 C 7.177,-5.741 6.23,-3.75 4.952,-2.25 3.672,-0.75 2.021,0 0,0 m 0,5.969 c 3.538,0 6.452,-1.026 8.741,-3.078 2.289,-2.055 3.995,-4.817 5.117,-8.291 1.121,-3.475 1.683,-7.345 1.683,-11.608 v -5.164 h -24.78 c 0.064,-6.475 1.066,-11.339 3.009,-14.592 1.943,-3.254 4.873,-4.88 8.79,-4.88 1.861,0 3.693,0.285 5.494,0.852 1.801,0.57 3.665,1.484 5.591,2.749 v -6.538 c -1.8,-1.106 -3.681,-1.927 -5.638,-2.464 -1.958,-0.537 -4.043,-0.805 -6.255,-0.805 -4.327,0 -7.832,1.161 -10.516,3.481 -2.686,2.323 -4.635,5.497 -5.851,9.523 -1.217,4.028 -1.824,8.583 -1.824,13.669 0,5.811 0.616,10.739 1.848,14.781 1.231,4.043 3.071,7.114 5.519,9.215 2.447,2.1 5.472,3.15 9.072,3.15" /></g><g
           transform="translate(866.9258,428.2158)"
           id="g58"><path
             id="path60"
             style="fill:#ffffd7;fill-opacity:1;fill-rule:nonzero;stroke:none"
             d="m 0,0 10.66,33.258 h 7.913 L 3.695,-9.048 v -26.958 h -7.532 v 26.768 l -14.83,42.496 h 7.864 z" /></g><g
           transform="translate(897.0576,418.2666)"
           id="g62"><path
             id="path64"
             style="fill:#ffffd7;fill-opacity:1;fill-rule:nonzero;stroke:none"
             d="m 0,0 c 0,-4.517 0.348,-8.307 1.042,-11.37 0.695,-3.064 1.778,-5.37 3.247,-6.917 1.468,-1.548 3.339,-2.322 5.613,-2.322 2.243,0 4.083,0.758 5.52,2.274 1.437,1.517 2.503,3.798 3.198,6.846 0.694,3.048 1.042,6.878 1.042,11.489 0,4.517 -0.348,8.299 -1.042,11.347 -0.695,3.048 -1.761,5.338 -3.198,6.869 -1.437,1.532 -3.293,2.298 -5.567,2.298 -3.475,0 -5.986,-1.713 -7.533,-5.14 C 0.774,11.947 0,6.822 0,0 m 27.053,0 c 0,-4.106 -0.348,-7.817 -1.042,-11.133 -0.695,-3.316 -1.753,-6.16 -3.175,-8.529 -1.421,-2.369 -3.221,-4.185 -5.401,-5.448 -2.179,-1.263 -4.753,-1.894 -7.722,-1.894 -2.843,0 -5.338,0.631 -7.486,1.894 -2.147,1.263 -3.931,3.071 -5.353,5.425 -1.421,2.353 -2.495,5.195 -3.222,8.528 -0.726,3.332 -1.089,7.051 -1.089,11.157 0,5.749 0.616,10.62 1.847,14.616 1.232,3.995 3.128,7.043 5.685,9.143 2.558,2.101 5.812,3.151 9.76,3.151 3.696,0 6.822,-1.019 9.381,-3.056 2.558,-2.037 4.501,-5.053 5.827,-9.048 C 26.39,10.81 27.053,5.875 27.053,0" /></g><g
           transform="translate(965.6133,444.2295)"
           id="g66"><path
             id="path68"
             style="fill:#ffffd7;fill-opacity:1;fill-rule:nonzero;stroke:none"
             d="m 0,0 v -52.02 h -5.827 l -0.807,7.391 h -0.519 c -0.697,-1.706 -1.605,-3.182 -2.726,-4.431 -1.122,-1.247 -2.409,-2.21 -3.86,-2.888 -1.453,-0.679 -3.081,-1.019 -4.88,-1.019 -3.032,0 -5.474,0.758 -7.321,2.274 -1.846,1.515 -3.19,3.679 -4.027,6.49 -0.836,2.81 -1.255,6.159 -1.255,10.044 V 0 h 7.296 v -32.785 c 0,-4.674 0.545,-8.117 1.634,-10.329 1.09,-2.211 2.757,-3.316 4.999,-3.316 2.432,0 4.374,0.671 5.827,2.013 1.453,1.342 2.511,3.38 3.175,6.112 0.663,2.732 0.993,6.199 0.993,10.4 V 0 Z" /></g><g
           transform="translate(995.6973,445.1294)"
           id="g70"><path
             id="path72"
             style="fill:#ffffd7;fill-opacity:1;fill-rule:nonzero;stroke:none"
             d="M 0,0 C 0.727,0 1.452,-0.056 2.18,-0.166 2.905,-0.277 3.664,-0.458 4.454,-0.711 L 3.317,-8.196 c -0.569,0.253 -1.169,0.426 -1.8,0.521 -0.632,0.095 -1.311,0.142 -2.037,0.142 -1.421,0 -2.725,-0.466 -3.91,-1.398 -1.184,-0.931 -2.203,-2.235 -3.055,-3.908 -0.854,-1.675 -1.509,-3.617 -1.966,-5.828 -0.459,-2.211 -0.671,-4.595 -0.64,-7.153 v -27.1 h -7.296 V -0.9 h 5.685 l 0.994,-9.239 h 0.475 c 0.725,1.99 1.579,3.743 2.557,5.259 0.981,1.516 2.109,2.709 3.389,3.577 C -3.008,-0.435 -1.58,0 0,0" /></g><g
           transform="translate(1055.9609,427.3159)"
           id="g74"><path
             id="path76"
             style="fill:#ffffd7;fill-opacity:1;fill-rule:nonzero;stroke:none"
             d="m 0,0 c 0,6.033 -0.585,11.086 -1.753,15.161 -1.168,4.074 -2.921,7.137 -5.259,9.191 -2.338,2.053 -5.29,3.08 -8.859,3.08 h -6.349 v -55.764 h 5.781 c 5.716,0 9.884,2.377 12.506,7.13 C -1.311,-16.448 0,-9.381 0,0 m 7.864,0.379 c 0,-7.802 -0.899,-14.332 -2.7,-19.591 -1.801,-5.259 -4.477,-9.223 -8.031,-11.892 -3.553,-2.668 -7.983,-4.002 -13.288,-4.002 h -13.598 v 69.264 h 14.166 c 5.149,0 9.459,-1.279 12.934,-3.837 C 0.821,27.763 3.442,23.972 5.211,18.95 6.98,13.928 7.864,7.738 7.864,0.379" /></g><g
           transform="translate(1092.3936,445.1294)"
           id="g78"><path
             id="path80"
             style="fill:#ffffd7;fill-opacity:1;fill-rule:nonzero;stroke:none"
             d="M 0,0 C 0.727,0 1.452,-0.056 2.18,-0.166 2.905,-0.277 3.664,-0.458 4.453,-0.711 L 3.317,-8.196 c -0.569,0.253 -1.169,0.426 -1.8,0.521 -0.632,0.095 -1.311,0.142 -2.038,0.142 -1.42,0 -2.724,-0.466 -3.909,-1.398 -1.184,-0.931 -2.203,-2.235 -3.055,-3.908 -0.854,-1.675 -1.509,-3.617 -1.966,-5.828 -0.459,-2.211 -0.671,-4.595 -0.64,-7.153 v -27.1 h -7.296 V -0.9 h 5.685 l 0.994,-9.239 h 0.475 c 0.725,1.99 1.579,3.743 2.557,5.259 0.981,1.516 2.109,2.709 3.389,3.577 C -3.008,-0.435 -1.58,0 0,0" /></g><g
           transform="translate(1118.4033,439.1123)"
           id="g82"><path
             id="path84"
             style="fill:#ffffd7;fill-opacity:1;fill-rule:nonzero;stroke:none"
             d="M 0,0 C -2.748,0 -4.896,-1.334 -6.443,-4.003 -7.99,-6.672 -8.891,-10.786 -9.144,-16.345 H 8.718 c 0,2.937 -0.308,5.646 -0.924,8.125 C 7.178,-5.741 6.23,-3.75 4.952,-2.25 3.673,-0.75 2.021,0 0,0 m 0,5.969 c 3.538,0 6.452,-1.026 8.741,-3.078 2.289,-2.055 3.995,-4.817 5.117,-8.291 1.121,-3.475 1.683,-7.345 1.683,-11.608 v -5.164 H -9.238 c 0.063,-6.475 1.065,-11.339 3.009,-14.592 1.943,-3.254 4.872,-4.88 8.789,-4.88 1.862,0 3.694,0.285 5.495,0.852 1.8,0.57 3.664,1.484 5.59,2.749 v -6.538 c -1.799,-1.106 -3.68,-1.927 -5.637,-2.464 -1.959,-0.537 -4.044,-0.805 -6.255,-0.805 -4.327,0 -7.833,1.161 -10.517,3.481 -2.686,2.323 -4.635,5.497 -5.85,9.523 -1.218,4.028 -1.825,8.583 -1.825,13.669 0,5.811 0.617,10.739 1.848,14.781 1.231,4.043 3.071,7.114 5.52,9.215 2.447,2.1 5.471,3.15 9.071,3.15" /></g><g
           transform="translate(1164.3584,418.1724)"
           id="g86"><path
             id="path88"
             style="fill:#ffffd7;fill-opacity:1;fill-rule:nonzero;stroke:none"
             d="m 0,0 -4.831,-0.332 c -3.665,-0.221 -6.39,-1.255 -8.173,-3.103 -1.786,-1.848 -2.677,-4.525 -2.677,-8.031 0,-3.253 0.584,-5.653 1.753,-7.201 1.167,-1.548 2.78,-2.321 4.831,-2.321 2.875,0 5.11,1.389 6.704,4.169 C -0.797,-14.04 0,-10.203 0,-5.307 Z m -6.206,27.004 c 4.8,0 8.227,-1.532 10.281,-4.595 C 6.127,19.345 7.154,14.907 7.154,9.096 V -25.963 H 1.61 l -1.089,7.391 H 0.333 c -0.823,-1.77 -1.802,-3.277 -2.937,-4.524 -1.138,-1.249 -2.433,-2.196 -3.886,-2.843 -1.453,-0.646 -3.126,-0.971 -5.023,-0.971 -2.683,0 -4.88,0.71 -6.585,2.132 -1.704,1.421 -2.968,3.293 -3.789,5.613 -0.823,2.322 -1.233,4.826 -1.233,7.51 0,5.148 1.484,9.144 4.454,11.987 2.968,2.842 7.185,4.389 12.65,4.643 l 5.922,0.379 v 3.552 c 0,4.17 -0.569,7.218 -1.705,9.144 -1.138,1.927 -2.97,2.89 -5.497,2.89 -1.452,0 -2.977,-0.253 -4.572,-0.757 -1.595,-0.506 -3.324,-1.311 -5.188,-2.417 l -2.32,5.496 c 1.957,1.263 4.05,2.203 6.276,2.819 2.228,0.615 4.525,0.923 6.894,0.923" /></g><g
           transform="translate(1224.9063,445.1768)"
           id="g90"><path
             id="path92"
             style="fill:#ffffd7;fill-opacity:1;fill-rule:nonzero;stroke:none"
             d="m 0,0 c 4.075,0 7.098,-1.477 9.072,-4.43 1.974,-2.953 2.962,-7.446 2.962,-13.478 V -52.967 H 4.738 v 33.78 c 0,4.548 -0.577,7.809 -1.73,9.783 -1.154,1.973 -2.819,2.961 -4.997,2.961 -3.159,0 -5.418,-1.485 -6.777,-4.453 -1.357,-2.97 -2.036,-7.265 -2.036,-12.887 v -29.184 h -7.201 v 33.874 c 0,3.095 -0.254,5.567 -0.758,7.414 -0.506,1.848 -1.257,3.182 -2.251,4.004 -0.995,0.821 -2.25,1.232 -3.766,1.232 -2.338,0 -4.138,-0.806 -5.401,-2.416 -1.263,-1.611 -2.14,-3.822 -2.629,-6.633 -0.49,-2.812 -0.735,-6.017 -0.735,-9.618 v -27.857 h -7.296 v 52.02 h 5.827 l 0.853,-7.391 h 0.428 c 0.663,1.768 1.514,3.269 2.557,4.501 1.042,1.231 2.281,2.179 3.719,2.842 1.437,0.663 3.056,0.995 4.856,0.995 3,0 5.361,-0.813 7.082,-2.44 1.722,-1.627 2.868,-3.672 3.435,-6.135 h 0.521 c 1.201,2.906 2.702,5.061 4.501,6.467 C -5.259,-0.703 -2.907,0 0,0" /></g></g></g></g></svg>