<?xml version="1.0" encoding="UTF-8"?>
<svg xmlns="http://www.w3.org/2000/svg" xmlns:xlink="http://www.w3.org/1999/xlink" width="60px" height="21px" viewBox="0 0 61 21" version="1.1">
<g id="surface1">
<path style=" stroke:none;fill-rule:nonzero;fill:#FFFFFF;fill-opacity:1;" d="M 34.925781 16.148438 C 35.644531 16.148438 39.367188 16.144531 39.367188 16.144531 L 47.316406 16.152344 C 47.316406 16.152344 50.09375 16.136719 51.554688 15.988281 C 53.519531 15.792969 54.566406 15.355469 55.367188 13.425781 C 55.816406 12.347656 55.964844 10.144531 55.734375 8.917969 C 55.457031 7.464844 54.707031 5.359375 51.378906 5.214844 C 47.492188 5.042969 45.148438 5.164062 41.261719 5.246094 C 40.589844 5.261719 39.253906 6.089844 38.710938 6.394531 C 37.625 7.011719 33.140625 10.429688 33.054688 10.488281 C 31.429688 11.597656 30.300781 12.835938 29.03125 14.542969 C 27.253906 16.929688 25.3125 19.707031 25.3125 19.707031 C 25.3125 19.707031 24.761719 20.433594 24.457031 20.824219 C 24.375 20.933594 24.210938 21.039062 24.082031 21.042969 C 22.125 21.054688 20.339844 21.050781 18.269531 21.050781 C 20.050781 18.535156 23.183594 14.339844 24.753906 12.0625 C 25.085938 11.582031 25.535156 10.941406 25.152344 10.621094 C 23.882812 9.5625 20.589844 6.871094 19.332031 5.886719 C 18.433594 5.1875 16.617188 5.257812 16.617188 5.257812 C 16.617188 5.257812 16.441406 5.246094 15.191406 5.253906 C 14.765625 5.257812 14.5625 5.230469 14.550781 5.667969 C 14.425781 10.480469 14.296875 15.746094 14.167969 20.558594 C 14.164062 20.710938 14.144531 20.867188 14.128906 21.050781 L 8.65625 21.050781 C 8.648438 20.933594 8.628906 20.808594 8.628906 20.6875 C 8.636719 16.015625 8.636719 10.890625 8.664062 6.222656 C 8.671875 5.4375 8.648438 5.152344 7.550781 5.136719 C 5.113281 5.101562 3.1875 5.121094 0.753906 5.121094 C 0.3125 5.121094 0.0078125 4.777344 0.0117188 4.332031 C 0.0273438 3.046875 0.0195312 0.121094 0.0195312 0.121094 L 5.84375 0.121094 L 14.152344 0.125 C 14.152344 0.125 15.886719 0.105469 17.269531 0.125 C 18.699219 0.148438 19.742188 0.046875 21.488281 1.378906 C 22.1875 1.914062 26.71875 5.710938 27.679688 6.40625 C 29.035156 7.382812 29.722656 7.03125 30.785156 6.222656 C 32.210938 5.128906 35.261719 3.050781 37.121094 1.601562 C 38.828125 0.269531 40.167969 0.0859375 41.066406 0.0898438 C 45.34375 0.113281 47.828125 0.0546875 52.09375 0.0664062 C 52.90625 0.0664062 55.332031 0.253906 57.289062 1.757812 C 59.03125 3.09375 60.40625 4.847656 60.816406 7.125 C 61.222656 9.386719 61.039062 12.976562 60.296875 15.132812 C 59.945312 16.144531 58.417969 20.980469 53.101562 21.03125 C 50.8125 21.050781 38.386719 21.074219 35.773438 21.042969 C 35.40625 21.039062 34.933594 20.75 34.929688 20.402344 C 34.917969 18.835938 34.925781 17.789062 34.925781 16.148438 "/>
<path style=" stroke:none;fill-rule:nonzero;fill:#FFFFFF;fill-opacity:1;" d="M 29.097656 21.09375 L 32.515625 21.09375 C 32.855469 21.09375 33.074219 20.789062 33.148438 20.453125 C 33.148438 20.453125 33.148438 16.203125 33.148438 16.203125 Z M 29.097656 21.09375 "/>
</g>
</svg>
