<svg class="u-icon u-icon--linkedin" viewBox="0 0 15 15" xmlns="http://www.w3.org/2000/svg">
    <path fill-rule="evenodd" clip-rule="evenodd" d="M1.04455 14.4428H3.95303V5.32934H1.04455V14.4428Z" />
    <path fill-rule="evenodd" clip-rule="evenodd" d="M2.48818 4.13029C3.43906 4.13029 4.20914 3.3763 4.20914 2.44555C4.20914 1.51523 3.43907 0.761239 2.48818 0.761239C1.53731 0.761239 0.767224 1.51522 0.767224 2.44555C0.767224 3.3763 1.5373 4.13029 2.48818 4.13029" />
    <path fill-rule="evenodd" clip-rule="evenodd" d="M8.60912 9.65144C8.60912 8.36892 9.21701 7.60642 10.3825 7.60642C11.4526 7.60642 11.9675 8.33808 11.9675 9.65144V14.4377H14.8637V8.66462C14.8637 6.22166 13.4359 5.04178 11.4433 5.04178C9.44808 5.04178 8.60912 6.5482 8.60912 6.5482V5.32059H5.81806V14.4377H8.60912V9.65144Z" />
</svg>
